<?xml version="1.0" standalone="no"?>
<!DOCTYPE svg PUBLIC "-//W3C//DTD SVG 20010904//EN"
 "http://www.w3.org/TR/2001/REC-SVG-20010904/DTD/svg10.dtd">
<svg version="1.0" xmlns="http://www.w3.org/2000/svg"
 width="260.000000pt" height="260.000000pt" viewBox="0 0 260.000000 260.000000"
 preserveAspectRatio="xMidYMid meet">
<metadata>
Created by potrace 1.14, written by Peter Selinger 2001-2017
</metadata>
<g transform="translate(0.000000,260.000000) scale(0.100000,-0.100000)"
fill="#000000" stroke="none">
<path d="M1176 2273 c-10 -3 -32 -13 -49 -23 -24 -15 -43 -17 -102 -13 -79 6
-191 -10 -240 -35 -38 -19 -145 -101 -145 -111 0 -4 -22 -13 -49 -20 -27 -7
-59 -20 -70 -29 -11 -9 -32 -25 -47 -35 -14 -11 -45 -50 -70 -88 -24 -38 -50
-69 -58 -69 -16 0 -112 -92 -141 -135 -32 -48 -65 -143 -65 -187 0 -19 -9 -32
-33 -47 -18 -11 -40 -33 -48 -48 -8 -15 -18 -31 -23 -35 -6 -4 -10 -42 -11
-85 0 -68 3 -82 22 -103 13 -13 23 -28 23 -32 0 -5 12 -20 28 -33 18 -16 23
-27 16 -32 -23 -16 -45 -75 -51 -136 -6 -64 18 -189 37 -195 6 -2 10 -8 10
-13 0 -5 16 -23 35 -40 23 -20 35 -40 35 -57 0 -33 31 -132 42 -132 4 0 8 -5
8 -10 0 -15 65 -71 112 -97 32 -18 57 -23 113 -23 62 0 76 -3 101 -25 16 -14
34 -25 41 -25 6 0 19 -8 29 -18 25 -24 196 -25 216 -1 7 9 29 28 48 42 23 16
42 44 55 77 18 46 24 52 61 61 25 7 59 27 84 50 l42 40 45 -42 c24 -22 78 -57
120 -77 63 -30 90 -36 158 -40 95 -5 196 20 264 66 65 45 140 121 156 159 15
35 16 35 37 19 13 -9 48 -29 78 -44 51 -25 64 -27 170 -26 150 0 199 19 291
108 48 48 74 84 99 138 32 68 34 80 34 176 0 61 -4 106 -10 110 -26 17 -33 71
-17 124 14 48 14 57 -2 107 -12 37 -29 65 -55 88 -37 34 -38 35 -33 96 4 57 2
67 -29 116 -24 40 -46 62 -83 81 -43 23 -52 33 -62 71 -10 33 -32 65 -86 121
-84 86 -145 116 -259 125 -38 3 -68 9 -68 13 0 17 -73 82 -102 91 -18 5 -63 9
-100 8 -37 -1 -73 2 -80 8 -7 6 -33 21 -57 33 -43 22 -83 23 -152 5 -18 -5
-31 -2 -43 11 -18 17 -130 29 -170 17z m150 -38 c35 -20 47 -23 69 -15 14 5
48 10 75 10 38 0 58 -7 96 -33 36 -25 54 -32 69 -26 65 25 164 -5 210 -65 23
-30 33 -36 66 -36 50 0 176 -40 221 -71 75 -51 148 -158 148 -216 0 -7 6 -13
13 -13 32 0 103 -59 129 -106 24 -44 25 -54 17 -98 -9 -48 -9 -49 36 -98 58
-64 71 -110 54 -194 -11 -58 -11 -66 10 -114 17 -39 22 -67 20 -118 -5 -123
-42 -207 -128 -292 -67 -67 -143 -100 -247 -107 -87 -7 -176 19 -250 72 -27
19 -51 35 -54 35 -3 0 -13 -20 -23 -44 -24 -59 -130 -159 -203 -193 -67 -30
-188 -46 -252 -32 -62 14 -177 74 -226 119 l-42 38 -52 -43 c-29 -25 -68 -47
-87 -51 -40 -7 -55 -22 -75 -77 -11 -28 -32 -54 -70 -84 -49 -37 -61 -42 -108
-43 -57 0 -118 25 -163 66 -22 21 -36 25 -115 27 -77 3 -94 7 -129 30 -72 48
-135 153 -135 225 0 19 -11 39 -36 63 -52 48 -76 108 -77 188 -1 57 4 76 31
128 l31 60 -23 22 c-13 12 -36 44 -50 72 -45 82 -25 178 51 245 21 17 37 42
39 57 8 61 12 74 26 108 30 69 69 120 129 166 33 26 83 78 109 114 56 78 95
109 165 135 28 10 70 35 95 57 101 88 193 119 337 115 72 -2 98 1 143 19 72
29 104 28 156 -2z"/>
<path d="M1166 2195 c-15 -8 -35 -15 -43 -15 -13 0 -14 -14 -9 -92 8 -107 25
-186 37 -167 4 7 5 17 3 21 -3 4 -1 8 4 8 6 0 13 -7 16 -16 3 -8 10 -13 16 -9
5 3 18 1 29 -5 12 -6 43 -8 76 -4 44 5 55 10 50 22 -4 10 0 12 10 8 11 -4 49
24 117 87 56 51 103 98 105 104 3 7 -14 21 -36 32 -44 23 -116 27 -154 10 -19
-9 -30 -7 -58 10 -41 25 -120 28 -163 6z m129 -256 c-3 -4 -12 -6 -20 -3 -8 4
-13 10 -10 15 3 4 12 6 20 3 8 -4 13 -10 10 -15z"/>
<path d="M853 2159 c-44 -14 -77 -33 -114 -67 l-51 -47 122 -93 c67 -50 125
-92 129 -92 4 0 16 -9 26 -20 26 -28 40 -25 21 5 -19 29 -12 35 44 32 25 -1
35 2 36 13 2 35 5 40 17 37 9 -1 11 19 9 83 -2 47 -7 103 -11 125 l-7 40 -79
2 c-57 2 -98 -3 -142 -18z"/>
<path d="M1634 2127 c-3 -8 9 -48 26 -89 16 -42 30 -81 30 -87 0 -5 5 -22 12
-38 6 -15 13 -36 15 -46 7 -38 33 -88 43 -82 5 3 19 38 31 78 11 40 27 86 34
102 31 70 19 110 -45 150 -45 28 -137 36 -146 12z m100 -208 c-3 -5 -10 -7
-15 -3 -5 3 -7 10 -3 15 3 5 10 7 15 3 5 -3 7 -10 3 -15z m26 -59 c0 -5 -5
-10 -11 -10 -5 0 -7 5 -4 10 3 6 8 10 11 10 2 0 4 -4 4 -10z"/>
<path d="M1505 2018 c-50 -50 -83 -87 -75 -81 25 18 113 44 119 36 3 -4 17
-14 30 -21 19 -11 25 -11 32 -1 6 10 10 10 23 0 9 -8 16 -10 16 -5 0 16 -45
164 -50 164 -3 0 -46 -41 -95 -92z"/>
<path d="M1900 2024 c0 -5 32 -73 72 -151 67 -134 74 -143 100 -143 16 0 43
-7 59 -16 29 -14 32 -14 75 13 41 26 45 31 40 60 -11 71 -105 167 -209 213
-51 23 -137 37 -137 24z"/>
<path d="M587 2005 c-48 -17 -73 -40 -128 -118 -23 -34 -69 -82 -102 -107 -39
-30 -72 -67 -97 -108 -36 -59 -59 -136 -46 -149 7 -7 313 55 339 69 9 5 17 15
17 23 0 19 49 75 66 75 11 0 14 30 14 165 0 181 3 174 -63 150z"/>
<path d="M680 1856 c0 -89 4 -156 9 -156 5 0 23 -11 38 -24 16 -14 38 -23 49
-21 10 2 22 4 25 4 4 1 9 15 11 31 4 26 1 30 -19 30 -13 0 -23 5 -23 11 0 5
-5 7 -11 3 -7 -4 -10 -1 -7 6 7 21 70 51 83 40 15 -12 25 -3 18 16 -4 11 1 14
19 10 14 -2 31 0 39 5 11 7 3 18 -33 50 -26 22 -68 55 -92 72 -24 18 -58 42
-75 55 l-31 23 0 -155z"/>
<path d="M1860 1987 c0 -10 -12 -60 -26 -112 l-27 -96 20 -22 c12 -12 28 -37
37 -54 9 -18 24 -33 34 -33 9 0 33 -3 52 -6 31 -5 37 -2 49 19 17 31 6 68 -17
61 -14 -5 -15 -4 -2 5 12 8 6 27 -44 123 -64 123 -76 141 -76 115z"/>
<path d="M1577 1890 c-4 -15 -1 -27 6 -32 9 -6 9 -10 0 -16 -7 -4 3 -14 28
-26 22 -11 36 -22 31 -25 -5 -3 -12 -16 -16 -28 -6 -17 -3 -23 8 -23 9 0 16
-8 16 -17 0 -14 4 -12 17 7 9 14 24 30 33 37 9 8 10 12 3 13 -6 0 -19 -7 -28
-16 -9 -9 -19 -14 -22 -10 -8 8 17 36 33 36 8 0 14 5 14 10 0 6 -8 10 -18 10
-29 0 -42 19 -31 48 11 28 3 44 -11 22 -7 -10 -10 -11 -10 -2 0 6 -9 12 -19
12 -11 0 -21 6 -23 12 -3 7 -7 2 -11 -12z"/>
<path d="M1145 1879 c-4 -6 -4 -13 -1 -16 3 -4 6 -1 6 6 0 7 5 9 12 5 7 -4 8
-3 4 4 -9 15 -13 15 -21 1z"/>
<path d="M1667 1857 c-3 -9 -2 -19 4 -23 15 -9 18 -2 9 20 -6 17 -7 18 -13 3z"/>
<path d="M1020 1852 c0 -5 7 -16 16 -23 14 -12 16 -11 13 5 -4 20 -29 35 -29
18z"/>
<path d="M1260 1849 c0 -5 5 -7 10 -4 6 3 10 8 10 11 0 2 -4 4 -10 4 -5 0 -10
-5 -10 -11z"/>
<path d="M1495 1824 c-22 -15 -43 -30 -48 -34 -9 -8 12 -72 27 -82 15 -10 156
-7 162 4 3 4 1 8 -4 8 -4 0 -23 14 -40 31 -23 23 -32 27 -32 15 0 -21 -16 -21
-24 0 -4 9 -13 14 -21 10 -8 -3 -22 -3 -30 0 -21 9 14 43 48 46 20 2 23 5 15
15 -13 16 -6 18 -53 -13z"/>
<path d="M1359 1816 c14 -14 26 -24 29 -22 7 8 -8 25 -31 37 -21 11 -21 10 2
-15z"/>
<path d="M1172 1806 c-1 -13 5 -27 13 -30 16 -6 20 11 9 38 -9 23 -19 19 -22
-8z"/>
<path d="M1070 1790 c0 -5 5 -10 11 -10 5 0 7 5 4 10 -3 6 -8 10 -11 10 -2 0
-4 -4 -4 -10z"/>
<path d="M790 1760 c0 -5 5 -10 10 -10 6 0 10 5 10 10 0 6 -4 10 -10 10 -5 0
-10 -4 -10 -10z"/>
<path d="M990 1760 c0 -7 -8 -10 -19 -7 -11 3 -22 -1 -25 -8 -3 -8 -20 -21
-40 -30 -35 -17 -51 -39 -40 -56 3 -5 11 -6 17 -2 7 4 21 9 32 10 95 9 114 16
120 40 3 14 5 26 3 27 -2 1 -13 10 -25 20 -15 13 -23 15 -23 6z"/>
<path d="M1232 1751 c-11 -7 -11 -9 2 -14 10 -4 16 -1 16 8 0 17 -1 17 -18 6z"/>
<path d="M2257 1653 c-27 -77 -87 -273 -87 -283 0 -3 9 -6 20 -7 11 -1 20 4
20 13 0 8 4 14 9 14 5 0 8 8 7 18 -1 13 8 18 37 20 28 2 37 0 37 -12 0 -9 5
-16 10 -16 17 0 11 -30 -7 -37 -31 -11 -53 -35 -53 -60 0 -12 -5 -23 -11 -23
-14 0 -43 -29 -45 -47 -2 -11 1 -11 11 -3 9 8 15 8 20 0 3 -5 1 -10 -4 -10 -6
0 -11 -6 -11 -14 0 -11 7 -12 38 -4 20 5 53 13 72 18 113 28 166 45 172 54 27
40 -9 146 -63 188 -34 26 -35 26 -31 94 2 56 -1 75 -17 102 -18 28 -74 72 -92
72 -3 0 -18 -35 -32 -77z m106 -168 c-3 -9 -8 -14 -10 -11 -3 3 -2 9 2 15 9
16 15 13 8 -4z"/>
<path d="M1263 1713 c9 -2 25 -2 35 0 9 3 1 5 -18 5 -19 0 -27 -2 -17 -5z"/>
<path d="M2208 1689 c-22 -16 -26 -25 -22 -52 12 -80 -98 -145 -162 -96 -10 8
-181 -127 -228 -180 -11 -11 -24 -21 -31 -21 -24 0 -54 -44 -48 -71 4 -21 12
-28 40 -32 20 -4 44 -2 55 4 20 11 42 3 33 -12 -3 -5 1 -6 9 -3 9 3 16 2 16
-4 0 -5 25 -16 57 -25 53 -15 57 -15 69 1 7 9 14 20 14 24 0 4 9 10 20 13 11
3 20 12 20 20 0 7 8 16 17 19 14 6 15 9 4 15 -10 6 -10 10 -1 16 6 4 14 5 17
1 9 -8 28 16 41 53 16 44 16 43 -10 36 -22 -6 -22 -5 1 8 19 11 36 47 73 152
27 76 47 142 46 146 -2 4 -15 -1 -30 -12z m-193 -320 c11 -17 -1 -21 -15 -4
-8 9 -8 15 -2 15 6 0 14 -5 17 -11z m-208 -36 c-9 -9 -20 -13 -24 -9 -4 4 -1
11 7 16 25 16 35 11 17 -7z m43 -64 c0 -6 -4 -7 -10 -4 -5 3 -10 11 -10 16 0
6 5 7 10 4 6 -3 10 -11 10 -16z"/>
<path d="M1236 1658 c4 -6 2 -13 -5 -17 -10 -7 27 -43 238 -233 81 -73 88 -77
121 -71 19 3 38 7 41 9 3 2 23 55 44 119 l38 116 -21 19 c-11 11 -23 28 -27
40 -10 31 -62 26 -113 -11 -24 -17 -45 -29 -48 -26 -9 9 6 28 17 22 5 -4 9 -2
9 3 0 6 -7 13 -16 16 -11 4 -18 -1 -21 -14 -3 -11 -9 -17 -14 -14 -5 3 -5 14
1 25 12 22 0 25 -31 9 -15 -8 -19 -7 -19 5 0 12 -16 15 -100 14 -66 0 -98 -4
-94 -11z"/>
<path d="M1822 1600 c-24 -28 -50 -50 -58 -50 -17 0 -19 16 -1 23 7 4 6 6 -4
6 -11 1 -20 -12 -27 -36 -5 -21 -22 -76 -36 -122 -36 -115 -29 -120 59 -42 33
28 37 36 27 52 -11 17 -9 18 16 13 22 -4 39 3 78 33 109 82 117 90 106 121 -6
20 -17 28 -43 33 -19 3 -43 9 -54 12 -16 5 -29 -4 -63 -43z m-14 -62 c-3 -7
-13 -15 -24 -17 -16 -3 -17 -1 -5 13 16 19 34 21 29 4z"/>
<path d="M920 1626 c-82 -15 -110 -30 -110 -60 0 -19 16 -30 100 -69 l100 -45
42 22 c41 21 43 25 46 72 2 27 0 45 -4 41 -4 -3 -17 5 -30 18 -30 32 -63 37
-144 21z m105 -16 c3 -5 2 -10 -4 -10 -5 0 -13 5 -16 10 -3 6 -2 10 4 10 5 0
13 -4 16 -10z m-2 -50 c6 -22 0 -25 -22 -11 -7 5 -10 14 -7 20 11 17 23 13 29
-9z m-73 -11 c0 -6 -4 -7 -10 -4 -5 3 -10 11 -10 16 0 6 5 7 10 4 6 -3 10 -11
10 -16z"/>
<path d="M1159 1587 c-21 -8 -28 -19 -33 -53 -5 -39 -2 -46 29 -77 37 -37 45
-75 24 -121 -10 -22 -6 -31 45 -94 l55 -70 68 18 c177 49 181 51 185 82 4 25
-3 37 -46 77 -143 134 -278 251 -289 250 -7 -1 -24 -6 -38 -12z m261 -257 c0
-5 -7 -10 -15 -10 -8 0 -15 5 -15 10 0 6 7 10 15 10 8 0 15 -4 15 -10z"/>
<path d="M390 1525 c-201 -45 -193 -42 -235 -83 -64 -62 -80 -125 -49 -200 17
-44 58 -85 80 -80 20 4 394 380 388 390 -8 12 -24 9 -184 -27z"/>
<path d="M765 1489 c3 -52 -11 -58 -46 -20 -24 27 -31 30 -47 20 -12 -8 -17
-20 -14 -35 5 -28 -1 -30 -22 -8 -25 24 -20 44 12 45 20 1 22 2 7 6 -11 3 -25
9 -30 13 -6 5 -21 0 -35 -11 -20 -15 -22 -21 -11 -28 10 -6 10 -10 1 -16 -6
-4 -14 -4 -17 -1 -10 9 -44 -14 -37 -26 4 -6 3 -9 -2 -5 -5 3 -77 -60 -159
-139 -150 -145 -150 -145 -110 -140 22 3 79 6 126 6 86 0 87 0 99 29 24 59
107 74 156 29 19 -17 23 -18 50 -3 16 8 65 29 109 47 44 17 93 44 108 60 16
15 33 26 38 23 5 -3 18 -1 30 6 20 10 20 12 6 21 -11 5 -24 5 -36 -2 -28 -15
-39 -13 -46 9 -3 11 -14 22 -23 24 -13 4 -12 5 4 6 12 0 24 8 28 16 7 20 26
19 26 -1 0 -11 5 -14 16 -10 11 4 18 -1 21 -14 6 -24 19 -26 27 -3 8 21 -6 34
-64 58 -25 11 -65 31 -90 45 -75 44 -77 44 -75 -1z m-70 -30 c11 -17 -1 -21
-15 -4 -8 9 -8 15 -2 15 6 0 14 -5 17 -11z m-85 -19 c0 -5 -4 -10 -9 -10 -5 0
-16 -3 -25 -6 -9 -3 -16 -1 -16 4 0 9 16 17 43 21 4 0 7 -3 7 -9z m147 -68
c17 -20 19 -29 10 -43 -8 -13 -8 -24 1 -44 11 -23 9 -27 -13 -37 -14 -6 -28
-8 -33 -3 -4 4 -1 10 6 12 15 6 16 33 1 33 -5 0 -8 4 -5 9 4 5 1 11 -5 13 -7
2 -7 12 0 32 13 32 5 52 -13 37 -15 -13 -27 -4 -20 14 8 19 46 7 71 -23z m-62
-32 c3 -5 2 -10 -4 -10 -5 0 -13 5 -16 10 -3 6 -2 10 4 10 5 0 13 -4 16 -10z"/>
<path d="M990 1308 c-14 -5 -28 -16 -33 -24 -4 -8 -14 -14 -22 -14 -8 0 -30
-7 -49 -16 -32 -16 -33 -19 -28 -58 4 -36 16 -56 32 -56 6 0 60 76 60 84 0 3
-12 1 -26 -4 -34 -13 -38 -13 -20 5 8 8 19 15 25 15 6 0 11 5 11 11 0 6 8 8
18 5 11 -3 25 6 41 25 27 35 25 40 -9 27z"/>
<path d="M1088 1291 c-35 -5 -52 -13 -68 -33 -19 -25 -19 -28 -5 -28 15 0 15
-2 4 -16 -8 -10 -15 -12 -17 -5 -2 6 -7 9 -12 6 -10 -6 -1 -45 11 -45 5 0 6
-6 3 -14 -4 -10 2 -12 23 -8 25 5 27 4 14 -11 -7 -9 -10 -25 -6 -34 6 -17 7
-17 16 0 6 9 15 14 21 11 8 -5 9 -1 4 11 -7 18 -6 18 14 0 11 -10 20 -23 20
-29 0 -13 -46 -36 -71 -36 -10 0 -21 -4 -24 -10 -11 -18 -23 -10 -17 12 4 16
2 20 -10 15 -12 -4 -14 -1 -11 13 3 10 0 21 -6 24 -6 4 -11 17 -11 29 0 19 -2
20 -15 6 -14 -13 -14 -22 -2 -69 l14 -54 66 -22 c63 -22 66 -22 82 -4 9 10 34
21 55 25 34 6 41 12 64 61 14 30 26 58 26 63 0 9 -109 153 -113 149 -1 0 -23
-4 -49 -7z m53 -204 c-1 -12 -15 -9 -19 4 -3 6 1 10 8 8 6 -3 11 -8 11 -12z
m14 -47 c3 -5 1 -10 -4 -10 -6 0 -11 5 -11 10 0 6 2 10 4 10 3 0 8 -4 11 -10z
m-65 -31 c0 -5 -7 -9 -15 -9 -15 0 -20 12 -9 23 8 8 24 -1 24 -14z"/>
<path d="M805 1190 c-6 -29 -7 -29 -26 -11 -19 17 -22 17 -65 2 -34 -12 -46
-22 -50 -41 -8 -43 -29 -74 -55 -87 -26 -12 -26 -14 -32 -170 -4 -87 -7 -205
-7 -263 l0 -105 45 67 44 66 88 7 c48 3 126 11 173 16 47 6 99 12 115 13 52 5
54 6 49 19 -3 8 6 18 21 25 16 8 25 19 24 34 l0 23 -10 -23 c-8 -22 -10 -22
-31 -8 -22 16 -58 22 -58 10 0 -3 5 -14 11 -26 13 -24 10 -28 -30 -34 -32 -5
-42 11 -20 33 8 8 8 13 0 17 -16 10 -13 26 3 20 9 -3 17 3 21 17 7 21 9 21 20
6 12 -16 13 -16 20 5 6 19 8 20 12 6 5 -21 43 -24 43 -4 0 8 -4 18 -10 21 -5
3 -10 11 -10 18 0 8 3 8 12 -1 27 -27 24 -10 -3 19 -18 19 -29 42 -29 59 0 25
-6 31 -55 49 -68 26 -66 26 -110 0 -63 -37 -136 -4 -151 68 -7 37 17 89 46 98
16 5 20 15 20 46 0 46 -6 50 -15 9z m144 -232 c-3 -27 14 -58 32 -58 23 0 24
-13 3 -31 -13 -10 -17 -10 -24 1 -7 11 -11 11 -24 0 -9 -7 -20 -10 -23 -6 -4
4 -2 10 4 14 14 9 20 62 9 80 -4 7 -1 12 9 12 9 0 15 -6 14 -12z m-194 -58
c-3 -5 -14 -10 -23 -9 -14 0 -13 2 3 9 27 11 27 11 20 0z m141 -26 c-4 -11 1
-18 14 -21 16 -4 19 -11 14 -27 -4 -11 -11 -24 -17 -28 -17 -11 -29 2 -16 18
9 11 9 17 -1 29 -12 14 -8 45 6 45 3 0 3 -7 0 -16z"/>
<path d="M2305 1140 c-88 -44 -167 -84 -175 -89 -8 -5 -35 -16 -60 -23 -45
-13 -45 -14 -43 -55 1 -33 -1 -41 -13 -36 -10 4 -17 -2 -20 -15 -3 -11 -22
-26 -44 -35 -32 -12 -40 -21 -45 -51 -9 -48 -4 -58 47 -93 90 -61 173 -80 269
-63 85 16 132 42 199 109 75 76 105 158 98 269 -5 71 -31 162 -47 162 -3 0
-78 -36 -166 -80z m-210 -150 c3 -5 2 -10 -4 -10 -5 0 -13 5 -16 10 -3 6 -2
10 4 10 5 0 13 -4 16 -10z m-35 -90 c0 -5 -7 -10 -15 -10 -8 0 -15 5 -15 10 0
6 7 10 15 10 8 0 15 -4 15 -10z"/>
<path d="M785 1200 c3 -5 8 -10 11 -10 2 0 4 5 4 10 0 6 -5 10 -11 10 -5 0 -7
-4 -4 -10z"/>
<path d="M1426 1182 l-100 -25 120 -33 c65 -18 138 -39 161 -46 38 -11 44 -10
56 6 11 15 17 16 35 7 29 -16 34 -14 22 9 -9 17 -6 25 14 45 24 24 27 25 48
11 16 -10 28 -12 38 -6 23 15 43 12 36 -5 -3 -8 0 -14 7 -12 7 1 12 -4 12 -12
0 -18 -37 -24 -47 -8 -5 8 -15 4 -32 -12 -20 -19 -23 -28 -15 -42 5 -11 6 -19
2 -20 -4 0 3 -5 16 -10 19 -8 28 -5 47 17 21 22 32 25 75 23 36 -2 53 1 59 12
12 21 0 68 -19 73 -48 14 -140 29 -164 27 -16 -1 -26 3 -23 8 3 5 -9 11 -27
14 -23 3 -35 -1 -44 -13 -17 -24 -68 -43 -97 -36 -13 3 -37 16 -53 29 l-28 24
-99 -25z m399 -12 c3 -5 1 -10 -4 -10 -6 0 -11 5 -11 10 0 6 2 10 4 10 3 0 8
-4 11 -10z m-7 -98 c2 -7 -2 -10 -12 -6 -9 3 -16 11 -16 16 0 13 23 5 28 -10z"/>
<path d="M2251 1172 c-36 -9 -66 -22 -68 -29 -6 -17 34 -9 97 20 64 30 59 32
-29 9z"/>
<path d="M1255 1084 c-26 -59 -27 -71 -7 -92 7 -8 15 -27 18 -42 6 -27 9 -28
163 -59 181 -36 181 -36 181 -15 0 11 -6 14 -22 10 -13 -3 -17 -3 -11 0 15 7
6 55 -11 66 -8 5 -7 8 1 8 7 0 10 7 7 15 -4 8 -2 15 4 15 5 0 15 -7 22 -15 9
-10 9 -15 1 -15 -6 0 -11 -4 -11 -10 0 -5 7 -10 15 -10 8 0 15 -4 15 -10 0 -5
6 -10 14 -10 7 0 19 -7 27 -16 11 -13 9 -14 -16 -8 -20 5 -26 4 -21 -5 4 -6
13 -11 21 -11 7 0 21 -7 29 -16 23 -22 36 -9 36 35 l0 38 43 -20 c23 -12 46
-27 50 -34 4 -7 15 -13 23 -13 8 0 12 -5 9 -10 -4 -6 -11 -8 -16 -5 -5 4 -9
-1 -9 -9 0 -8 -8 -17 -17 -19 -10 -2 -8 -3 5 -2 13 1 22 -3 22 -11 0 -8 9 -14
19 -14 22 0 41 42 22 48 -6 2 -11 10 -11 18 0 9 6 11 18 7 9 -4 2 8 -16 26
-18 19 -35 46 -38 60 -5 21 -14 30 -44 37 -39 11 -79 -4 -66 -25 4 -5 2 -12
-2 -15 -5 -3 -19 8 -31 25 -25 34 -23 49 3 23 12 -11 21 -13 27 -7 13 13 -56
47 -81 40 -11 -3 -20 -1 -22 4 -2 5 -59 24 -128 43 -69 19 -140 39 -158 45
l-33 10 -24 -55z m64 -122 c0 -24 -1 -25 -9 -7 -12 28 -12 47 0 40 6 -3 10
-18 9 -33z"/>
<path d="M310 1113 c-128 -4 -140 -9 -171 -78 -21 -46 -24 -120 -7 -176 6 -21
31 -60 56 -85 37 -39 45 -55 51 -99 10 -70 51 -139 104 -169 54 -32 126 -51
159 -43 25 7 25 9 31 124 4 65 7 194 8 286 2 166 1 169 -21 180 -13 7 -28 21
-34 32 -14 26 -27 35 -46 33 -8 -1 -67 -4 -130 -5z m218 -286 c3 -12 -4 -17
-22 -17 -27 0 -37 24 -13 33 19 8 32 2 35 -16z"/>
<path d="M1260 872 c0 -5 -18 -18 -39 -30 -43 -24 -46 -31 -57 -105 -5 -41 -3
-51 21 -82 40 -53 65 -74 120 -100 139 -67 292 -53 410 37 43 32 125 141 125
165 0 22 -116 38 -127 18 -8 -14 -11 -15 -39 -15 -11 0 -15 -6 -11 -19 4 -17
2 -18 -14 -8 -10 6 -19 15 -19 19 0 5 -4 8 -10 8 -5 0 -10 -7 -10 -15 0 -8 -7
-15 -15 -15 -8 0 -15 -4 -15 -10 0 -5 -7 -10 -15 -10 -8 0 -15 -4 -15 -10 0
-6 -9 -6 -22 -2 -27 10 -58 5 -58 -9 0 -6 5 -7 10 -4 6 3 10 1 10 -4 0 -15
-12 -14 -38 5 -21 14 -24 15 -35 0 -11 -13 -14 -13 -31 -1 -12 9 -15 15 -7 15
9 0 12 10 9 30 -3 20 0 30 8 30 8 0 11 6 9 13 -6 16 41 75 51 64 5 -4 3 -11
-3 -15 -9 -5 -6 -12 9 -21 18 -11 20 -11 15 2 -3 9 -1 18 6 20 23 8 -2 19 -89
38 -95 21 -134 24 -134 11z m54 -47 c-26 -18 -29 -11 -7 14 10 12 19 17 21 11
2 -6 -4 -17 -14 -25z m-84 -10 c0 -8 -6 -15 -14 -15 -20 0 -29 17 -14 23 22 9
28 7 28 -8z m154 -1 c7 -18 -1 -37 -13 -29 -5 2 -16 -4 -26 -15 -10 -11 -24
-20 -32 -20 -7 0 -13 -8 -13 -17 0 -13 -3 -14 -11 -6 -9 9 -8 16 3 27 9 8 18
12 21 9 4 -3 16 11 28 31 23 39 34 44 43 20z m-174 -64 c0 -21 -25 -4 -28 20
-4 21 -2 22 12 7 9 -8 16 -21 16 -27z m-10 -40 c0 -5 -2 -10 -4 -10 -3 0 -8 5
-11 10 -3 6 -1 10 4 10 6 0 11 -4 11 -10z m150 -10 c0 -5 -5 -10 -11 -10 -5 0
-7 5 -4 10 3 6 8 10 11 10 2 0 4 -4 4 -10z m-120 -36 c0 -8 -4 -14 -10 -14 -5
0 -10 9 -10 21 0 11 5 17 10 14 6 -3 10 -13 10 -21z"/>
<path d="M1100 706 c0 -9 5 -16 10 -16 6 0 10 4 10 9 0 6 -4 13 -10 16 -5 3
-10 -1 -10 -9z"/>
<path d="M980 643 c-152 -7 -295 -25 -312 -40 -10 -8 -36 -45 -59 -80 l-43
-65 25 -20 c40 -33 102 -58 142 -58 75 0 146 55 163 125 9 39 32 65 57 65 10
0 41 12 68 26 50 28 72 56 41 52 -9 -1 -46 -3 -82 -5z"/>
</g>
</svg>
